0
SECTION
2
HEADER
9
$INSUNITS
70
4
9
$ACADVER
1
AC1014
9
$HANDSEED
5
FFFF
0
ENDSEC
0
SECTION
2
TABLES
0
TABLE
2
VPORT
5
8
100
AcDbSymbolTable
0
ENDTAB
0
TABLE
2
LTYPE
5
5
100
AcDbSymbolTable
0
LTYPE
5
14
100
AcDbSymbolTableRecord
100
AcDbLinetypeTableRecord
2
BYBLOCK
70
0
0
LTYPE
5
15
100
AcDbSymbolTableRecord
100
AcDbLinetypeTableRecord
2
BYLAYER
70
0
0
ENDTAB
0
TABLE
2
LAYER
5
2
100
AcDbSymbolTable
70
2
0
LAYER
5
50
100
AcDbSymbolTableRecord
100
AcDbLayerTableRecord
2
0
70
0
6
CONTINUOUS
0
ENDTAB
0
TABLE
2
STYLE
5
3
100
AcDbSymbolTable
70
1
0
STYLE
5
11
100
AcDbSymbolTableRecord
100
AcDbTextStyleTableRecord
2
STANDARD
70
0
0
ENDTAB
0
TABLE
2
VIEW
5
6
100
AcDbSymbolTable
70
0
0
ENDTAB
0
TABLE
2
UCS
5
7
100
AcDbSymbolTable
70
0
0
ENDTAB
0
TABLE
2
APPID
5
9
100
AcDbSymbolTable
70
2
0
APPID
5
12
100
AcDbSymbolTableRecord
100
AcDbRegAppTableRecord
2
ACAD
70
0
0
ENDTAB
0
TABLE
2
DIMSTYLE
5
A
100
AcDbSymbolTable
70
1
0
ENDTAB
0
TABLE
2
BLOCK_RECORD
5
1
100
AcDbSymbolTable
70
1
0
BLOCK_RECORD
5
1F
100
AcDbSymbolTableRecord
100
AcDbBlockTableRecord
2
*MODEL_SPACE
0
BLOCK_RECORD
5
1B
100
AcDbSymbolTableRecord
100
AcDbBlockTableRecord
2
*PAPER_SPACE
0
ENDTAB
0
ENDSEC
0
SECTION
2
BLOCKS
0
BLOCK
5
20
100
AcDbEntity
100
AcDbBlockBegin
2
*MODEL_SPACE
0
ENDBLK
5
21
100
AcDbEntity
100
AcDbBlockEnd
0
BLOCK
5
1C
100
AcDbEntity
100
AcDbBlockBegin
2
*PAPER_SPACE
0
ENDBLK
5
1D
100
AcDbEntity
100
AcDbBlockEnd
0
ENDSEC
0
SECTION
2
ENTITIES
0
LWPOLYLINE
5
100
100
AcDbEntity
8
0
100
AcDbPolyline
90
76
70
1
43
0.0
10
-282.9999999999439
20
319.5
10
-409.79289321881345
20
319.5
10
-414.5
20
314.79289321881345
10
-414.5
20
298.27499999999998
10
-410.49999999999704
20
298.27499999999998
10
-410.49999999999886
20
244.27499999999998
10
-414.5
20
244.27499999999998
10
-414.5
20
221.50000000000003
10
-411.50000000000006
20
221.49999999999994
42
-0.41421356237309159
10
-408.5
20
218.5
10
-408.49999999999994
20
211.5
42
-0.41421356237308116
10
-411.5
20
208.49999999999997
10
-414.5
20
208.49999999999997
10
-414.5
20
111.49999999993589
10
-411.5000000000004
20
111.49999999993632
42
-0.41421356237313667
10
-408.5
20
108.49999999993635
10
-408.49999999999994
20
101.49999999993636
42
-0.41421356237303258
10
-411.49999999999949
20
98.49999999993635
10
-414.5
20
98.499999999935866
10
-414.5
20
79.500000000000014
10
-410.50000000000739
20
79.500000000000014
10
-410.50000000000739
20
25.500000000000007
10
-414.5
20
25.5
10
-414.5
20
5.2071067811865852
10
-409.79289321881345
20
0.5000000000000121
10
-285.97397443761059
20
0.49999999999999989
42
0.4774831521015378
10
-284.5072708164945
20
2.3142936330963231
10
-286.47053159758224
20
11.476177278171754
42
-0.47748315210153719
10
-284.02602556238872
20
14.499999999998984
10
-269.97397443761065
20
14.499999999998979
42
-0.47748315210153802
10
-267.52946840241714
20
11.47617727817175
10
-269.49272918350493
20
2.3142936330963382
42
0.47748315210154091
10
-268.02602556238878
20
0.49999999999998457
10
-146.9739744376111
20
0.50000000000000022
42
0.4774831521015368
10
-145.50727081649501
20
2.3142936330963106
10
-147.47053159758261
20
11.476177278171855
42
-0.47748315210153541
10
-145.02602556238909
20
14.499999999999043
10
-130.97397443761091
20
14.49999999999903
42
-0.47748315210153597
10
-128.52946840241739
20
11.476177278171845
10
-130.49272918350499
20
2.314293633096316
42
0.47748315210153147
10
-129.02602556238887
20
0.49999999999999745
10
-5.2071067811865746
20
0.5
10
-0.50000000000000044
20
5.2071067811865479
10
-0.5
20
25.500000000000004
10
-4.5000000000000027
20
25.500000000000004
10
-4.5000000000000409
20
79.500000000000014
10
-0.49999999999999989
20
79.5
10
-0.5
20
98.499999999999972
10
-3.4999999999999969
20
98.499999999999972
42
-0.41421356237309365
10
-6.4999999999999964
20
101.49999999999999
10
-6.5000000000000071
20
108.5
42
-0.41421356237309459
10
-3.4999999999999694
20
111.5
10
-0.49999999999999989
20
111.49999999999999
10
-0.5
20
208.49999999999997
10
-3.4999999999999942
20
208.5
42
-0.41421356237308937
10
-6.4999999999999947
20
211.5
10
-6.5000000000000018
20
218.5
42
-0.41421356237308926
10
-3.4999999999999831
20
221.50000000000003
10
-0.49999999999999989
20
221.50000000000003
10
-0.50000000000000033
20
244.27499999999998
10
-4.4999999999999325
20
244.27499999999998
10
-4.4999999999998961
20
298.27499999999998
10
-0.49999999999999989
20
298.27499999999998
10
-0.5
20
314.79289321881345
10
-5.2071067811865754
20
319.5
10
-131.99999999999852
20
319.5
10
-131.99999999999844
20
316.50000000000006
42
-0.41421356237311585
10
-134.99999999999847
20
313.5
10
-142.00000000001
20
313.50000000000011
42
-0.41421356237308815
10
-145.00000000001
20
316.50000000000006
10
-145.00000000001
20
319.5
10
-269.99999999992997
20
319.5
10
-269.99999999993054
20
316.49999999999977
42
-0.41421356237308815
10
-272.99999999993116
20
313.50000000000034
10
-279.99999999994515
20
313.50000000000171
42
-0.41421356237310542
10
-282.99999999994452
20
316.50000000000244
0
ENDSEC
0
SECTION
2
OBJECTS
0
DICTIONARY
5
C
100
AcDbDictionary
3
ACAD_GROUP
350
D
3
ACAD_MLINESTYLE
350
17
0
DICTIONARY
5
D
100
AcDbDictionary
0
DICTIONARY
5
1A
330
C
100
AcDbDictionary
0
DICTIONARY
5
17
100
AcDbDictionary
0
ENDSEC
0
EOF
