0
SECTION
2
HEADER
9
$INSUNITS
70
4
9
$ACADVER
1
AC1014
9
$HANDSEED
5
FFFF
0
ENDSEC
0
SECTION
2
TABLES
0
TABLE
2
VPORT
5
8
100
AcDbSymbolTable
0
ENDTAB
0
TABLE
2
LTYPE
5
5
100
AcDbSymbolTable
0
LTYPE
5
14
100
AcDbSymbolTableRecord
100
AcDbLinetypeTableRecord
2
BYBLOCK
70
0
0
LTYPE
5
15
100
AcDbSymbolTableRecord
100
AcDbLinetypeTableRecord
2
BYLAYER
70
0
0
ENDTAB
0
TABLE
2
LAYER
5
2
100
AcDbSymbolTable
70
2
0
LAYER
5
50
100
AcDbSymbolTableRecord
100
AcDbLayerTableRecord
2
0
70
0
6
CONTINUOUS
0
ENDTAB
0
TABLE
2
STYLE
5
3
100
AcDbSymbolTable
70
1
0
STYLE
5
11
100
AcDbSymbolTableRecord
100
AcDbTextStyleTableRecord
2
STANDARD
70
0
0
ENDTAB
0
TABLE
2
VIEW
5
6
100
AcDbSymbolTable
70
0
0
ENDTAB
0
TABLE
2
UCS
5
7
100
AcDbSymbolTable
70
0
0
ENDTAB
0
TABLE
2
APPID
5
9
100
AcDbSymbolTable
70
2
0
APPID
5
12
100
AcDbSymbolTableRecord
100
AcDbRegAppTableRecord
2
ACAD
70
0
0
ENDTAB
0
TABLE
2
DIMSTYLE
5
A
100
AcDbSymbolTable
70
1
0
ENDTAB
0
TABLE
2
BLOCK_RECORD
5
1
100
AcDbSymbolTable
70
1
0
BLOCK_RECORD
5
1F
100
AcDbSymbolTableRecord
100
AcDbBlockTableRecord
2
*MODEL_SPACE
0
BLOCK_RECORD
5
1B
100
AcDbSymbolTableRecord
100
AcDbBlockTableRecord
2
*PAPER_SPACE
0
ENDTAB
0
ENDSEC
0
SECTION
2
BLOCKS
0
BLOCK
5
20
100
AcDbEntity
100
AcDbBlockBegin
2
*MODEL_SPACE
0
ENDBLK
5
21
100
AcDbEntity
100
AcDbBlockEnd
0
BLOCK
5
1C
100
AcDbEntity
100
AcDbBlockBegin
2
*PAPER_SPACE
0
ENDBLK
5
1D
100
AcDbEntity
100
AcDbBlockEnd
0
ENDSEC
0
SECTION
2
ENTITIES
0
LWPOLYLINE
5
100
100
AcDbEntity
8
0
100
AcDbPolyline
90
4
70
1
43
0.0
10
0
20
0
10
415
20
-1.4097807192914566e-30
10
415
20
-320
10
-5.3348259459526433e-31
20
-320
0
LWPOLYLINE
5
101
100
AcDbEntity
8
0
100
AcDbPolyline
90
8
70
1
43
0.0
10
-1.667133108110201e-31
20
-100
10
5.0000000000000089
20
-100
42
-0.41421356237309503
10
7.000000000000016
20
-102.00000000000001
10
7.0000000000000338
20
-103
10
6.9999999999992424
20
-107
10
7.0000000000000178
20
-107.99999999999999
42
-0.41421356237309503
10
5.0000000000000071
20
-110
10
-2.0601784358461318e-31
20
-109.99999999999999
0
LINE
5
102
100
AcDbEntity
8
0
100
AcDbLine
10
5.0000000000000089
20
-100
30
0
11
5.0000000000000071
21
-110
31
0
0
LWPOLYLINE
5
103
100
AcDbEntity
8
0
100
AcDbPolyline
90
8
70
1
43
0.0
10
134.99999999999966
20
-1.7763568394002505e-14
10
145
20
-1.7763568394002505e-14
10
145
20
-4.9999999999999911
42
-0.41421356237308982
10
143
20
-7.0000000000000187
10
142
20
-7.0000000000307638
10
138
20
-7.0000000000000036
10
137
20
-7.0000000000000036
42
-0.41421356237309503
10
135
20
-4.9999999999999929
0
LWPOLYLINE
5
104
100
AcDbEntity
8
0
100
AcDbPolyline
90
12
70
1
43
0.0
10
145
20
-4.9999999999999911
10
135
20
-5
10
135
20
-315
42
-0.41421356237309503
10
137.00000000000003
20
-313
10
138
20
-313
10
142.00000000000003
20
-312.99999999996925
10
143
20
-313
42
-0.41421356237308982
10
145
20
-315
10
145
20
-320
10
134.99999999999966
20
-320
10
135
20
-315
10
145
20
-315
0
LINE
5
105
100
AcDbEntity
8
0
100
AcDbLine
10
142
20
-7.0000000000307638
30
0
11
142
21
-6.0000000000307638
31
0
0
LINE
5
106
100
AcDbEntity
8
0
100
AcDbLine
10
142
20
-6.0000000000307638
30
0
11
143.25000000000003
21
-6.0000000000307825
31
0
0
ARC
5
107
100
AcDbEntity
8
0
100
AcDbCircle
10
143.25000000000003
20
-5.2500000000308047
30
0
40
0.74999999999997846
210
0
220
0
230
1
100
AcDbArc
50
-90
51
0
0
LINE
5
108
100
AcDbEntity
8
0
100
AcDbLine
10
144
20
-5.2500000000308047
30
0
11
143.99999999999966
21
-1.7763568394002505e-14
31
0
0
LINE
5
109
100
AcDbEntity
8
0
100
AcDbLine
10
135.99999999999835
20
-1.7763568394002505e-14
30
0
11
135.99999999999835
21
-5.2500000001084146
31
0
0
ARC
5
110
100
AcDbEntity
8
0
100
AcDbCircle
10
136.74999999999997
20
-5.2500000001084146
30
0
40
0.75000000000162714
210
0
220
0
230
1
100
AcDbArc
50
180
51
270
0
LINE
5
111
100
AcDbEntity
8
0
100
AcDbLine
10
136.74999999999997
20
-6.0000000001100418
30
0
11
138
21
-6.0000000000000044
31
0
0
LINE
5
112
100
AcDbEntity
8
0
100
AcDbLine
10
138
20
-6.0000000000000044
30
0
11
138
21
-7.0000000000000036
31
0
0
LINE
5
113
100
AcDbEntity
8
0
100
AcDbLine
10
7.0000000000000338
20
-103
30
0
11
6.0000000000000338
21
-103
31
0
0
LINE
5
114
100
AcDbEntity
8
0
100
AcDbLine
10
6.0000000000000338
20
-103
30
0
11
6.0000000000000853
21
-101.75000000005697
31
0
0
ARC
5
115
100
AcDbEntity
8
0
100
AcDbCircle
10
5.2499999999431353
20
-101.75000000005697
30
0
40
0.75000000005694956
210
0
220
0
230
1
100
AcDbArc
50
0
51
89.999999999999389
0
LINE
5
116
100
AcDbEntity
8
0
100
AcDbLine
10
5.2499999999431433
20
-101.00000000000003
30
0
11
-2.3314646669189867e-32
21
-101.00000000000001
31
0
0
LINE
5
117
100
AcDbEntity
8
0
100
AcDbLine
10
-3.3712517206418004e-31
20
-108.99999999999997
30
0
11
5.2499999999428173
21
-108.99999999999997
31
0
0
ARC
5
118
100
AcDbEntity
8
0
100
AcDbCircle
10
5.2499999999428173
20
-108.24999999994303
30
0
40
0.75000000005694289
210
0
220
0
230
1
100
AcDbArc
50
-90
51
0
0
LINE
5
119
100
AcDbEntity
8
0
100
AcDbLine
10
5.9999999999997558
20
-108.24999999994303
30
0
11
5.9999999999992424
21
-106.99999999999997
31
0
0
LINE
5
120
100
AcDbEntity
8
0
100
AcDbLine
10
5.9999999999992424
20
-106.99999999999997
30
0
11
6.9999999999992424
21
-107
31
0
0
LINE
5
121
100
AcDbEntity
8
0
100
AcDbLine
10
207.5
20
-7.0489035964572832e-31
30
0
11
207.5
21
-320
31
0
0
LINE
5
122
100
AcDbEntity
8
0
100
AcDbLine
10
415
20
-160
30
0
11
-2.6674129729763217e-31
21
-160
31
0
0
LINE
5
123
100
AcDbEntity
8
0
100
AcDbLine
10
409.0000000000008
20
-106.99999999999997
30
0
11
408.00000000000074
21
-107
31
0
0
LWPOLYLINE
5
124
100
AcDbEntity
8
0
100
AcDbPolyline
90
8
70
1
43
0.0
10
408.00000000000074
20
-107
10
408
20
-107.99999999999999
42
0.41421356237309503
10
410
20
-110
10
415
20
-109.99999999999999
10
415
20
-100
10
410
20
-100
42
0.41421356237309503
10
408
20
-102.00000000000001
10
408
20
-103
0
LINE
5
125
100
AcDbEntity
8
0
100
AcDbLine
10
408
20
-103
30
0
11
408.99999999999989
21
-103
31
0
0
LINE
5
126
100
AcDbEntity
8
0
100
AcDbLine
10
410
20
-100
30
0
11
410
21
-110
31
0
0
LINE
5
127
100
AcDbEntity
8
0
100
AcDbLine
10
408.99999999999989
20
-103
30
0
11
408.99999999999989
21
-101.75000000005697
31
0
0
ARC
5
128
100
AcDbEntity
8
0
100
AcDbCircle
10
409.75000000005684
20
-101.75000000005697
30
0
40
0.75000000005694289
210
0
220
-0
230
1
100
AcDbArc
50
90
51
180
0
ARC
5
129
100
AcDbEntity
8
0
100
AcDbCircle
10
409.75000000005718
20
-108.24999999994303
30
0
40
0.75000000005701395
210
0
220
0
230
1
100
AcDbArc
50
180
51
269.99999999994787
0
LINE
5
130
100
AcDbEntity
8
0
100
AcDbLine
10
409.75000000005684
20
-101.00000000000003
30
0
11
415
21
-101.00000000000001
31
0
0
LINE
5
131
100
AcDbEntity
8
0
100
AcDbLine
10
415
20
-108.99999999999997
30
0
11
409.7500000000565
21
-108.99999999999979
31
0
0
LINE
5
132
100
AcDbEntity
8
0
100
AcDbLine
10
409.00000000000023
20
-108.24999999994303
30
0
11
409.0000000000008
21
-106.99999999999997
31
0
0
LWPOLYLINE
5
133
100
AcDbEntity
8
0
100
AcDbPolyline
90
4
70
1
43
0.0
10
270
20
-4.9999999999999911
10
280
20
-4.9999999999999929
10
280.00000000000034
20
-1.7763568394002505e-14
10
270
20
-1.7763568394002505e-14
0
LINE
5
134
100
AcDbEntity
8
0
100
AcDbLine
10
273
20
-7.0000000000307638
30
0
11
273
21
-6.0000000000307638
31
0
0
LINE
5
135
100
AcDbEntity
8
0
100
AcDbLine
10
271
20
-5.2500000000308047
30
0
11
271.00000000000034
21
-1.7763568394002505e-14
31
0
0
ARC
5
136
100
AcDbEntity
8
0
100
AcDbCircle
10
278
20
-4.9999999999999929
30
0
40
2.0000000000000107
210
0
220
0
230
1
100
AcDbArc
50
-90
51
0
0
ARC
5
137
100
AcDbEntity
8
0
100
AcDbCircle
10
278.25
20
-5.2500000001084146
30
0
40
0.75000000000162714
210
0
220
0
230
1
100
AcDbArc
50
-90
51
0
0
LINE
5
138
100
AcDbEntity
8
0
100
AcDbLine
10
273
20
-6.0000000000307638
30
0
11
271.75
21
-6.0000000000307825
31
0
0
LINE
5
139
100
AcDbEntity
8
0
100
AcDbLine
10
272
20
-7.0000000000000187
30
0
11
273
21
-7.0000000000307638
31
0
0
LINE
5
140
100
AcDbEntity
8
0
100
AcDbLine
10
279.00000000000165
20
-1.7763568394002505e-14
30
0
11
279.00000000000165
21
-5.2500000001084146
31
0
0
LINE
5
141
100
AcDbEntity
8
0
100
AcDbLine
10
278.25
20
-6.0000000001100418
30
0
11
277
21
-6.0000000000000044
31
0
0
ARC
5
142
100
AcDbEntity
8
0
100
AcDbCircle
10
272
20
-4.9999999999999911
30
0
40
2.0000000000000284
210
0
220
0
230
1
100
AcDbArc
50
180
51
270
0
ARC
5
143
100
AcDbEntity
8
0
100
AcDbCircle
10
271.75
20
-5.2500000000308047
30
0
40
0.74999999999995737
210
0
220
0
230
1
100
AcDbArc
50
180
51
270
0
LINE
5
144
100
AcDbEntity
8
0
100
AcDbLine
10
277
20
-7.0000000000000036
30
0
11
278
21
-7.0000000000000036
31
0
0
LINE
5
145
100
AcDbEntity
8
0
100
AcDbLine
10
277
20
-6.0000000000000044
30
0
11
277
21
-7.0000000000000036
31
0
0
ARC
5
146
100
AcDbEntity
8
0
100
AcDbCircle
10
5.2499999999427871
20
-211.75000000005696
30
0
40
0.75000000005694289
210
0
220
0
230
1
100
AcDbArc
50
0
51
90
0
LINE
5
147
100
AcDbEntity
8
0
100
AcDbLine
10
5.9999999999992326
20
-213.00000000000006
30
0
11
6.9999999999992468
21
-213
31
0
0
LWPOLYLINE
5
148
100
AcDbEntity
8
0
100
AcDbPolyline
90
8
70
1
43
0.0
10
5
20
-220
42
0.41421356237309503
10
7.0000000000000284
20
-217.99999999999997
10
7.0000000000000284
20
-217
10
6.9999999999992468
20
-213
10
7.0000000000000284
20
-212.00000000000003
42
0.41421356237309503
10
5
20
-210
10
0
20
-210
10
0
20
-220
0
ARC
5
149
100
AcDbEntity
8
0
100
AcDbCircle
10
5.2499999999431424
20
-218.24999999994304
30
0
40
0.75000000005694289
210
0
220
0
230
1
100
AcDbArc
50
-90
51
0
0
LINE
5
150
100
AcDbEntity
8
0
100
AcDbLine
10
0
20
-211
30
0
11
5.2499999999427871
21
-211
31
0
0
LINE
5
151
100
AcDbEntity
8
0
100
AcDbLine
10
5.2499999999431424
20
-219
30
0
11
0
21
-219
31
0
0
LINE
5
152
100
AcDbEntity
8
0
100
AcDbLine
10
6.0000000000000142
20
-217
30
0
11
6.0000000000000853
21
-218.24999999994304
31
0
0
LINE
5
153
100
AcDbEntity
8
0
100
AcDbLine
10
5.99999999999973
20
-211.75000000005696
30
0
11
5.9999999999992326
21
-213.00000000000006
31
0
0
LINE
5
154
100
AcDbEntity
8
0
100
AcDbLine
10
5
20
-220
30
0
11
5
21
-210
31
0
0
LINE
5
155
100
AcDbEntity
8
0
100
AcDbLine
10
7.0000000000000284
20
-217
30
0
11
6.0000000000000142
21
-217
31
0
0
ARC
5
156
100
AcDbEntity
8
0
100
AcDbCircle
10
136.74999999999997
20
-314.7499999998916
30
0
40
0.75000000000162714
210
0
220
-0
230
1
100
AcDbArc
50
90
51
180
0
LINE
5
157
100
AcDbEntity
8
0
100
AcDbLine
10
142.00000000000003
20
-312.99999999996925
30
0
11
142
21
-313.99999999996919
31
0
0
LINE
5
158
100
AcDbEntity
8
0
100
AcDbLine
10
136.74999999999997
20
-313.99999999988995
30
0
11
138
21
-314
31
0
0
ARC
5
159
100
AcDbEntity
8
0
100
AcDbCircle
10
143.25000000000003
20
-314.74999999996919
30
0
40
0.74999999999995737
210
0
220
0
230
1
100
AcDbArc
50
0
51
90
0
LINE
5
160
100
AcDbEntity
8
0
100
AcDbLine
10
142
20
-313.99999999996919
30
0
11
143.25000000000003
21
-313.99999999996919
31
0
0
LINE
5
161
100
AcDbEntity
8
0
100
AcDbLine
10
135.99999999999835
20
-320
30
0
11
135.99999999999835
21
-314.7499999998916
31
0
0
LINE
5
162
100
AcDbEntity
8
0
100
AcDbLine
10
144
20
-314.74999999996919
30
0
11
143.99999999999966
21
-320
31
0
0
LINE
5
163
100
AcDbEntity
8
0
100
AcDbLine
10
138
20
-314
30
0
11
138
21
-313
31
0
0
LINE
5
164
100
AcDbEntity
8
0
100
AcDbLine
10
273
20
-313.99999999996919
30
0
11
271.75
21
-313.99999999996919
31
0
0
ARC
5
165
100
AcDbEntity
8
0
100
AcDbCircle
10
271.75
20
-314.74999999996919
30
0
40
0.74999999999995737
210
0
220
-0
230
1
100
AcDbArc
50
90
51
180
0
LINE
5
166
100
AcDbEntity
8
0
100
AcDbLine
10
271
20
-314.74999999996919
30
0
11
271.00000000000034
21
-320
31
0
0
LWPOLYLINE
5
167
100
AcDbEntity
8
0
100
AcDbPolyline
90
6
70
1
43
0.0
10
280
20
-315
42
0.41421356237309503
10
278
20
-313
10
277
20
-313
10
273
20
-312.99999999996925
10
272
20
-313
42
0.41421356237308982
10
270
20
-315
0
ARC
5
168
100
AcDbEntity
8
0
100
AcDbCircle
10
278.25
20
-314.7499999998916
30
0
40
0.75000000000162714
210
0
220
0
230
1
100
AcDbArc
50
0
51
90
0
LINE
5
169
100
AcDbEntity
8
0
100
AcDbLine
10
277
20
-314
30
0
11
277
21
-313
31
0
0
LINE
5
170
100
AcDbEntity
8
0
100
AcDbLine
10
280
20
-315
30
0
11
280.00000000000034
21
-320
31
0
0
LINE
5
171
100
AcDbEntity
8
0
100
AcDbLine
10
273
20
-312.99999999996925
30
0
11
273
21
-313.99999999996919
31
0
0
LINE
5
172
100
AcDbEntity
8
0
100
AcDbLine
10
270
20
-320
30
0
11
270
21
-315
31
0
0
LINE
5
173
100
AcDbEntity
8
0
100
AcDbLine
10
279.00000000000165
20
-320
30
0
11
279.00000000000165
21
-314.7499999998916
31
0
0
LINE
5
174
100
AcDbEntity
8
0
100
AcDbLine
10
278.25
20
-313.99999999988995
30
0
11
277
21
-314
31
0
0
LINE
5
175
100
AcDbEntity
8
0
100
AcDbLine
10
280.00000000000034
20
-320
30
0
11
270
21
-320
31
0
0
LWPOLYLINE
5
176
100
AcDbEntity
8
0
100
AcDbPolyline
90
6
70
1
43
0.0
10
410
20
-220
10
410
20
-210
42
0.41421356237309503
10
408
20
-212.00000000000003
10
408.00000000000074
20
-213
10
408
20
-217
10
408
20
-217.99999999999997
42
0.41421356237309503
0
LINE
5
177
100
AcDbEntity
8
0
100
AcDbLine
10
410
20
-210
30
0
11
415
21
-210
31
0
0
LINE
5
178
100
AcDbEntity
8
0
100
AcDbLine
10
408.99999999999972
20
-211.75000000005667
30
0
11
409.0000000000008
21
-213.00000000000006
31
0
0
ARC
5
179
100
AcDbEntity
8
0
100
AcDbCircle
10
409.75000000005684
20
-218.24999999994304
30
0
40
0.75000000005694289
210
0
220
0
230
1
100
AcDbArc
50
180
51
270
0
LINE
5
180
100
AcDbEntity
8
0
100
AcDbLine
10
409.0000000000008
20
-213.00000000000006
30
0
11
408.00000000000074
21
-213
31
0
0
LINE
5
181
100
AcDbEntity
8
0
100
AcDbLine
10
415
20
-220
30
0
11
410
21
-220
31
0
0
LINE
5
182
100
AcDbEntity
8
0
100
AcDbLine
10
409.75000000005684
20
-219
30
0
11
415
21
-219
31
0
0
ARC
5
183
100
AcDbEntity
8
0
100
AcDbCircle
10
409.75000000005673
20
-211.75000000005667
30
0
40
0.75000000005694289
210
0
220
0
230
1
100
AcDbArc
50
90.000000000008683
51
180
0
LINE
5
184
100
AcDbEntity
8
0
100
AcDbLine
10
408.99999999999989
20
-217
30
0
11
408.99999999999989
21
-218.24999999994304
31
0
0
LINE
5
185
100
AcDbEntity
8
0
100
AcDbLine
10
415
20
-210
30
0
11
415
21
-220
31
0
0
LINE
5
186
100
AcDbEntity
8
0
100
AcDbLine
10
415
20
-211
30
0
11
409.75000000005662
21
-210.99999999999972
31
0
0
LINE
5
187
100
AcDbEntity
8
0
100
AcDbLine
10
408
20
-217
30
0
11
408.99999999999989
21
-217
31
0
0
LINE
5
188
100
AcDbEntity
8
0
100
AcDbLine
10
410
20
-105
30
0
11
5.000000000000008
21
-105
31
0
0
LINE
5
189
100
AcDbEntity
8
0
100
AcDbLine
10
5
20
-215
30
0
11
410
21
-215
31
0
0
LINE
5
190
100
AcDbEntity
8
0
100
AcDbLine
10
275
20
-4.999999999999992
30
0
11
275
21
-315
31
0
0
LINE
5
191
100
AcDbEntity
8
0
100
AcDbLine
10
140
20
-315
30
0
11
140
21
-4.999999999999992
31
0
0
LWPOLYLINE
5
192
100
AcDbEntity
8
0
100
AcDbPolyline
90
4
70
1
43
0.0
10
72.000000000000014
20
-90
10
68
20
-90
10
68
20
-101
10
72.000000000000014
20
-101
0
LWPOLYLINE
5
193
100
AcDbEntity
8
0
100
AcDbPolyline
90
4
70
1
43
0.0
10
72.000000000000014
20
-109
10
68
20
-109
10
68
20
-120
10
72.000000000000014
20
-120
0
LINE
5
194
100
AcDbEntity
8
0
100
AcDbLine
10
72.000000000000014
20
-101
30
0
11
72.000000000000014
21
-109
31
0
0
LWPOLYLINE
5
195
100
AcDbEntity
8
0
100
AcDbPolyline
90
4
70
1
43
0.0
10
209.50000000000003
20
-90
10
205.49999999999997
20
-90
10
205.5
20
-101
10
209.5
20
-101
0
LWPOLYLINE
5
196
100
AcDbEntity
8
0
100
AcDbPolyline
90
4
70
1
43
0.0
10
209.49999999999935
20
-109
10
205.50000000000065
20
-109
10
205.50000000000065
20
-120
10
209.49999999999935
20
-120
0
LWPOLYLINE
5
197
100
AcDbEntity
8
0
100
AcDbPolyline
90
4
70
1
43
0.0
10
343
20
-90
10
347
20
-90
10
347
20
-101
10
343
20
-101
0
LWPOLYLINE
5
198
100
AcDbEntity
8
0
100
AcDbPolyline
90
4
70
1
43
0.0
10
343
20
-109
10
347
20
-109
10
347
20
-120
10
343
20
-120
0
LWPOLYLINE
5
199
100
AcDbEntity
8
0
100
AcDbPolyline
90
4
70
1
43
0.0
10
67.999999999999972
20
-230
10
67.999999999999972
20
-219
10
72.000000000000028
20
-219
10
72.000000000000028
20
-230
0
LWPOLYLINE
5
200
100
AcDbEntity
8
0
100
AcDbPolyline
90
4
70
1
43
0.0
10
67.999999999999972
20
-211
10
67.999999999999972
20
-200
10
72.000000000000028
20
-200
10
72.000000000000028
20
-211
0
LWPOLYLINE
5
201
100
AcDbEntity
8
0
100
AcDbPolyline
90
4
70
1
43
0.0
10
205.49999999999997
20
-230
10
205.5
20
-219
10
209.5
20
-219
10
209.50000000000003
20
-230
0
LWPOLYLINE
5
202
100
AcDbEntity
8
0
100
AcDbPolyline
90
4
70
1
43
0.0
10
209.49999999999935
20
-211
10
205.50000000000065
20
-211
10
205.50000000000065
20
-200
10
209.49999999999935
20
-200
0
LWPOLYLINE
5
203
100
AcDbEntity
8
0
100
AcDbPolyline
90
4
70
1
43
0.0
10
347
20
-230
10
347
20
-219
10
343
20
-219
10
343
20
-230
0
LWPOLYLINE
5
204
100
AcDbEntity
8
0
100
AcDbPolyline
90
4
70
1
43
0.0
10
343
20
-211
10
347
20
-211
10
347
20
-200
10
343
20
-200
0
LWPOLYLINE
5
205
100
AcDbEntity
8
0
100
AcDbPolyline
90
8
70
1
43
0.0
10
410
20
-1.9721522630525295e-30
10
415
20
-5.000000000000016
10
0
20
-5.0000000000000044
10
4.9999999999999991
20
-2.0816681711721685e-16
10
4.9999999999999574
20
-320
10
2.2204460492503218e-15
20
-315
10
415
20
-315.00000000000011
10
409.99999999999994
20
-320
0
LINE
5
206
100
AcDbEntity
8
0
100
AcDbLine
10
150.00000000000006
20
-16.000000000000277
30
0
11
149.99999999999994
21
-315
31
0
0
LINE
5
207
100
AcDbEntity
8
0
100
AcDbLine
10
130.00000000000006
20
-15.999999999999739
30
0
11
129.99999999999994
21
-315
31
0
0
LINE
5
208
100
AcDbEntity
8
0
100
AcDbLine
10
146
20
0
30
0
11
151
21
-20
31
0
0
LINE
5
209
100
AcDbEntity
8
0
100
AcDbLine
10
151
20
-20
30
0
11
149.05971499970926
21
-20.485071250072444
31
0
0
LINE
5
210
100
AcDbEntity
8
0
100
AcDbLine
10
149.05971499970926
20
-20.485071250072444
30
0
11
145
21
-4.2462112512363426
31
0
0
LINE
5
211
100
AcDbEntity
8
0
100
AcDbLine
10
134
20
0
30
0
11
129
21
-19.999999999999993
31
0
0
LINE
5
212
100
AcDbEntity
8
0
100
AcDbLine
10
129
20
-19.999999999999993
30
0
11
130.94028500029063
21
-20.485071250072743
31
0
0
LINE
5
213
100
AcDbEntity
8
0
100
AcDbLine
10
130.94028500029063
20
-20.485071250072743
30
0
11
134.99999999999994
21
-4.2462112512373533
31
0
0
LINE
5
214
100
AcDbEntity
8
0
100
AcDbLine
10
130.00000000000006
20
-15.999999999999739
30
0
11
131.55304549725102
21
-5.000000000000008
31
0
0
LINE
5
215
100
AcDbEntity
8
0
100
AcDbLine
10
150.00000000000006
20
-16.000000000000277
30
0
11
148.44695450275265
21
-5.0000000000000089
31
0
0
LINE
5
216
100
AcDbEntity
8
0
100
AcDbLine
10
284.99999999999994
20
-15.999999999999739
30
0
11
285.00000000000006
21
-315
31
0
0
LINE
5
217
100
AcDbEntity
8
0
100
AcDbLine
10
284.0597149997094
20
-20.485071250072743
30
0
11
280.00000000000006
21
-4.2462112512373533
31
0
0
LINE
5
218
100
AcDbEntity
8
0
100
AcDbLine
10
281
20
0
30
0
11
286
21
-19.999999999999993
31
0
0
LINE
5
219
100
AcDbEntity
8
0
100
AcDbLine
10
284.99999999999994
20
-15.999999999999739
30
0
11
283.44695450274901
21
-5.000000000000008
31
0
0
LINE
5
220
100
AcDbEntity
8
0
100
AcDbLine
10
286
20
-19.999999999999993
30
0
11
284.0597149997094
21
-20.485071250072743
31
0
0
LINE
5
221
100
AcDbEntity
8
0
100
AcDbLine
10
280
20
-315
30
0
11
280
21
-4.9999999999999929
31
0
0
LINE
5
222
100
AcDbEntity
8
0
100
AcDbLine
10
270
20
-4.9999999999999911
30
0
11
270
21
-315
31
0
0
LINE
5
223
100
AcDbEntity
8
0
100
AcDbLine
10
264.99999999999994
20
-16.000000000000277
30
0
11
265.00000000000006
21
-315
31
0
0
LINE
5
224
100
AcDbEntity
8
0
100
AcDbLine
10
269
20
0
30
0
11
264
21
-20
31
0
0
LINE
5
225
100
AcDbEntity
8
0
100
AcDbLine
10
264
20
-20
30
0
11
265.94028500029077
21
-20.485071250072444
31
0
0
LINE
5
226
100
AcDbEntity
8
0
100
AcDbLine
10
265.94028500029077
20
-20.485071250072444
30
0
11
270
21
-4.2462112512363426
31
0
0
LINE
5
227
100
AcDbEntity
8
0
100
AcDbLine
10
264.99999999999994
20
-16.000000000000277
30
0
11
266.55304549724735
21
-5.0000000000000089
31
0
0
LINE
5
228
100
AcDbEntity
8
0
100
AcDbLine
10
273
20
-7.0000000000307638
30
0
11
277
21
-7.0000000000000036
31
0
0
LINE
5
229
100
AcDbEntity
8
0
100
AcDbLine
10
0
20
-26
30
0
11
3.9999999999999969
21
-26
31
0
0
LINE
5
230
100
AcDbEntity
8
0
100
AcDbLine
10
3.9999999999999969
20
-26
30
0
11
4.0000000000000169
21
-79
31
0
0
LINE
5
231
100
AcDbEntity
8
0
100
AcDbLine
10
4.0000000000000169
20
-79
30
0
11
-1.2644308693020379e-31
21
-79
31
0
0
LINE
5
232
100
AcDbEntity
8
0
100
AcDbLine
10
3.3306690738754696e-14
20
-244.77499999999998
30
0
11
3.9999999999999969
21
-244.77499999999998
31
0
0
LINE
5
233
100
AcDbEntity
8
0
100
AcDbLine
10
3.9999999999999969
20
-244.77499999999998
30
0
11
3.9999999999999969
21
-297.77499999999998
31
0
0
LINE
5
234
100
AcDbEntity
8
0
100
AcDbLine
10
3.9999999999999969
20
-297.77499999999998
30
0
11
3.3306690738754696e-14
21
-297.77499999999998
31
0
0
LINE
5
235
100
AcDbEntity
8
0
100
AcDbLine
10
410.99999999999994
20
-79
30
0
11
415
21
-79
31
0
0
LINE
5
236
100
AcDbEntity
8
0
100
AcDbLine
10
411
20
-26
30
0
11
410.99999999999994
21
-79
31
0
0
LINE
5
237
100
AcDbEntity
8
0
100
AcDbLine
10
415
20
-26
30
0
11
411
21
-26
31
0
0
LINE
5
238
100
AcDbEntity
8
0
100
AcDbLine
10
411
20
-297.77499999999998
30
0
11
415
21
-297.77499999999998
31
0
0
LINE
5
239
100
AcDbEntity
8
0
100
AcDbLine
10
411
20
-244.77499999999998
30
0
11
411
21
-297.77499999999998
31
0
0
LINE
5
240
100
AcDbEntity
8
0
100
AcDbLine
10
415
20
-244.77499999999998
30
0
11
411
21
-244.77499999999998
31
0
0
ENDSEC
0
SECTION
2
OBJECTS
0
DICTIONARY
5
C
100
AcDbDictionary
3
ACAD_GROUP
350
D
3
ACAD_MLINESTYLE
350
17
0
DICTIONARY
5
D
100
AcDbDictionary
0
DICTIONARY
5
1A
330
C
100
AcDbDictionary
0
DICTIONARY
5
17
100
AcDbDictionary
0
ENDSEC
0
EOF
